<mxfile host="app.diagrams.net" modified="2021-07-23T03:42:23.731Z" agent="5.0 (Windows NT 10.0; Win64; x64) AppleWebKit/537.36 (KHTML, like Gecko) Chrome/91.0.4472.164 Safari/537.36" etag="Euu5YO0Ug09j0INChFT5" version="14.9.0" type="github">
  <diagram id="qa11rxhOahjOXZ3wsZGu" name="Page-1">
    <mxGraphModel dx="944" dy="1755" grid="1" gridSize="10" guides="1" tooltips="1" connect="1" arrows="1" fold="1" page="1" pageScale="1" pageWidth="827" pageHeight="1169" math="0" shadow="0">
      <root>
        <mxCell id="0" />
        <mxCell id="1" parent="0" />
        <mxCell id="0ZbCkWr9lXcJor2fyHlb-79" value="" style="rounded=0;whiteSpace=wrap;html=1;fillColor=#fff2cc;strokeColor=#d6b656;" parent="1" vertex="1">
          <mxGeometry x="310" y="130" width="120" height="90" as="geometry" />
        </mxCell>
        <mxCell id="0ZbCkWr9lXcJor2fyHlb-48" value="" style="rounded=0;whiteSpace=wrap;html=1;" parent="1" vertex="1">
          <mxGeometry x="40" y="80" width="140" height="50" as="geometry" />
        </mxCell>
        <mxCell id="0ZbCkWr9lXcJor2fyHlb-49" value="Train.py" style="text;html=1;resizable=0;autosize=1;align=center;verticalAlign=middle;points=[];fillColor=none;strokeColor=none;rounded=0;" parent="1" vertex="1">
          <mxGeometry x="40" y="60" width="60" height="20" as="geometry" />
        </mxCell>
        <mxCell id="0ZbCkWr9lXcJor2fyHlb-56" value="train_deeplab" style="text;html=1;resizable=0;autosize=1;align=center;verticalAlign=middle;points=[];fillColor=none;strokeColor=none;rounded=0;" parent="1" vertex="1">
          <mxGeometry x="40" y="100" width="90" height="20" as="geometry" />
        </mxCell>
        <mxCell id="0ZbCkWr9lXcJor2fyHlb-57" value="train" style="text;html=1;resizable=0;autosize=1;align=center;verticalAlign=middle;points=[];fillColor=none;strokeColor=none;rounded=0;" parent="1" vertex="1">
          <mxGeometry x="40" y="80" width="40" height="20" as="geometry" />
        </mxCell>
        <mxCell id="0ZbCkWr9lXcJor2fyHlb-58" value="" style="endArrow=classic;html=1;exitX=1;exitY=0.5;exitDx=0;exitDy=0;exitPerimeter=0;entryX=0.944;entryY=0.45;entryDx=0;entryDy=0;entryPerimeter=0;" parent="1" source="0ZbCkWr9lXcJor2fyHlb-57" target="0ZbCkWr9lXcJor2fyHlb-56" edge="1">
          <mxGeometry width="50" height="50" relative="1" as="geometry">
            <mxPoint x="300" y="250" as="sourcePoint" />
            <mxPoint x="350" y="200" as="targetPoint" />
            <Array as="points">
              <mxPoint x="150" y="89" />
              <mxPoint x="150" y="109" />
            </Array>
          </mxGeometry>
        </mxCell>
        <mxCell id="0ZbCkWr9lXcJor2fyHlb-59" value="deeplab/deeplab_train.py" style="text;html=1;resizable=0;autosize=1;align=center;verticalAlign=middle;points=[];fillColor=none;strokeColor=none;rounded=0;" parent="1" vertex="1">
          <mxGeometry x="40" y="130" width="150" height="20" as="geometry" />
        </mxCell>
        <mxCell id="0ZbCkWr9lXcJor2fyHlb-60" value="" style="rounded=0;whiteSpace=wrap;html=1;fillColor=#dae8fc;strokeColor=#6c8ebf;" parent="1" vertex="1">
          <mxGeometry x="40" y="200" width="180" height="250" as="geometry" />
        </mxCell>
        <mxCell id="0ZbCkWr9lXcJor2fyHlb-61" value="" style="endArrow=classic;html=1;entryX=0.007;entryY=0.65;entryDx=0;entryDy=0;entryPerimeter=0;" parent="1" target="0ZbCkWr9lXcJor2fyHlb-59" edge="1">
          <mxGeometry width="50" height="50" relative="1" as="geometry">
            <mxPoint x="40" y="110" as="sourcePoint" />
            <mxPoint x="40" y="290" as="targetPoint" />
            <Array as="points">
              <mxPoint x="20" y="110" />
              <mxPoint x="20" y="143" />
            </Array>
          </mxGeometry>
        </mxCell>
        <mxCell id="0ZbCkWr9lXcJor2fyHlb-62" value="evaluate.py" style="text;html=1;resizable=0;autosize=1;align=center;verticalAlign=middle;points=[];fillColor=none;strokeColor=none;rounded=0;" parent="1" vertex="1">
          <mxGeometry x="30" y="180" width="80" height="20" as="geometry" />
        </mxCell>
        <mxCell id="0ZbCkWr9lXcJor2fyHlb-63" value="visualization_deeplab" style="text;html=1;resizable=0;autosize=1;align=center;verticalAlign=middle;points=[];fillColor=none;strokeColor=none;rounded=0;" parent="1" vertex="1">
          <mxGeometry x="40" y="220" width="130" height="20" as="geometry" />
        </mxCell>
        <mxCell id="0ZbCkWr9lXcJor2fyHlb-64" value="compute_mIoU" style="text;html=1;resizable=0;autosize=1;align=center;verticalAlign=middle;points=[];fillColor=none;strokeColor=none;rounded=0;" parent="1" vertex="1">
          <mxGeometry x="310" y="160" width="100" height="20" as="geometry" />
        </mxCell>
        <mxCell id="0ZbCkWr9lXcJor2fyHlb-65" value="&lt;font color=&quot;#3333ff&quot;&gt;ModelBoard&lt;/font&gt;" style="text;html=1;resizable=0;autosize=1;align=center;verticalAlign=middle;points=[];fillColor=none;strokeColor=none;rounded=0;" parent="1" vertex="1">
          <mxGeometry x="40" y="250" width="80" height="20" as="geometry" />
        </mxCell>
        <mxCell id="0ZbCkWr9lXcJor2fyHlb-66" value="upload_eval_to_modelboard" style="text;html=1;resizable=0;autosize=1;align=center;verticalAlign=middle;points=[];fillColor=none;strokeColor=none;rounded=0;" parent="1" vertex="1">
          <mxGeometry x="310" y="190" width="170" height="20" as="geometry" />
        </mxCell>
        <mxCell id="0ZbCkWr9lXcJor2fyHlb-69" value="export_model" style="text;html=1;resizable=0;autosize=1;align=center;verticalAlign=middle;points=[];fillColor=none;strokeColor=none;rounded=0;" parent="1" vertex="1">
          <mxGeometry x="40" y="300" width="90" height="20" as="geometry" />
        </mxCell>
        <mxCell id="0ZbCkWr9lXcJor2fyHlb-70" value="&lt;font color=&quot;#3333ff&quot;&gt;DEEPLAB_MODEL&lt;/font&gt;" style="text;html=1;resizable=0;autosize=1;align=center;verticalAlign=middle;points=[];fillColor=none;strokeColor=none;rounded=0;" parent="1" vertex="1">
          <mxGeometry x="40" y="320" width="120" height="20" as="geometry" />
        </mxCell>
        <mxCell id="0ZbCkWr9lXcJor2fyHlb-71" value="MB.faInit" style="text;html=1;resizable=0;autosize=1;align=center;verticalAlign=middle;points=[];fillColor=none;strokeColor=none;rounded=0;" parent="1" vertex="1">
          <mxGeometry x="40" y="340" width="60" height="20" as="geometry" />
        </mxCell>
        <mxCell id="0ZbCkWr9lXcJor2fyHlb-72" value="predictor.predict" style="text;html=1;resizable=0;autosize=1;align=center;verticalAlign=middle;points=[];fillColor=none;strokeColor=none;rounded=0;" parent="1" vertex="1">
          <mxGeometry x="55" y="360" width="100" height="20" as="geometry" />
        </mxCell>
        <mxCell id="0ZbCkWr9lXcJor2fyHlb-73" value="MB.faAdd" style="text;html=1;resizable=0;autosize=1;align=center;verticalAlign=middle;points=[];fillColor=none;strokeColor=none;rounded=0;" parent="1" vertex="1">
          <mxGeometry x="40" y="380" width="70" height="20" as="geometry" />
        </mxCell>
        <mxCell id="0ZbCkWr9lXcJor2fyHlb-74" value="&lt;span&gt;MB.faDump&lt;/span&gt;" style="text;html=1;resizable=0;autosize=1;align=center;verticalAlign=middle;points=[];fillColor=none;strokeColor=none;rounded=0;fontStyle=0" parent="1" vertex="1">
          <mxGeometry x="40" y="400" width="80" height="20" as="geometry" />
        </mxCell>
        <mxCell id="0ZbCkWr9lXcJor2fyHlb-75" value="MB.faCommit" style="text;html=1;resizable=0;autosize=1;align=center;verticalAlign=middle;points=[];fillColor=none;strokeColor=none;rounded=0;" parent="1" vertex="1">
          <mxGeometry x="40" y="420" width="90" height="20" as="geometry" />
        </mxCell>
        <mxCell id="0ZbCkWr9lXcJor2fyHlb-76" value="evaluate" style="text;html=1;resizable=0;autosize=1;align=center;verticalAlign=middle;points=[];fillColor=none;strokeColor=none;rounded=0;" parent="1" vertex="1">
          <mxGeometry x="40" y="200" width="60" height="20" as="geometry" />
        </mxCell>
        <mxCell id="0ZbCkWr9lXcJor2fyHlb-77" value="" style="endArrow=classic;html=1;entryX=0.001;entryY=0.579;entryDx=0;entryDy=0;entryPerimeter=0;" parent="1" target="0ZbCkWr9lXcJor2fyHlb-63" edge="1">
          <mxGeometry width="50" height="50" relative="1" as="geometry">
            <mxPoint x="40" y="210" as="sourcePoint" />
            <mxPoint x="39.99999999999996" y="246.5" as="targetPoint" />
            <Array as="points">
              <mxPoint x="19" y="210" />
              <mxPoint x="19" y="232" />
            </Array>
          </mxGeometry>
        </mxCell>
        <mxCell id="0ZbCkWr9lXcJor2fyHlb-78" value="metric_calculator" style="text;html=1;resizable=0;autosize=1;align=center;verticalAlign=middle;points=[];fillColor=none;strokeColor=none;rounded=0;" parent="1" vertex="1">
          <mxGeometry x="310" y="110" width="110" height="20" as="geometry" />
        </mxCell>
        <mxCell id="0ZbCkWr9lXcJor2fyHlb-80" value="" style="endArrow=classic;html=1;entryX=0;entryY=0.5;entryDx=0;entryDy=0;exitX=1.021;exitY=0.521;exitDx=0;exitDy=0;exitPerimeter=0;" parent="1" source="0ZbCkWr9lXcJor2fyHlb-76" target="0ZbCkWr9lXcJor2fyHlb-79" edge="1">
          <mxGeometry width="50" height="50" relative="1" as="geometry">
            <mxPoint x="38.82000000000004" y="211.5" as="sourcePoint" />
            <mxPoint x="39.99999999999999" y="229.58000000000004" as="targetPoint" />
            <Array as="points">
              <mxPoint x="230" y="210" />
              <mxPoint x="230" y="185" />
            </Array>
          </mxGeometry>
        </mxCell>
        <mxCell id="0ZbCkWr9lXcJor2fyHlb-81" value="" style="endArrow=classic;html=1;entryX=0;entryY=0.783;entryDx=0;entryDy=0;entryPerimeter=0;" parent="1" target="0ZbCkWr9lXcJor2fyHlb-66" edge="1">
          <mxGeometry width="50" height="50" relative="1" as="geometry">
            <mxPoint x="100" y="209" as="sourcePoint" />
            <mxPoint x="289" y="207" as="targetPoint" />
            <Array as="points">
              <mxPoint x="230" y="209" />
            </Array>
          </mxGeometry>
        </mxCell>
        <mxCell id="0ZbCkWr9lXcJor2fyHlb-82" value="evaluation_deeplab" style="text;html=1;resizable=0;autosize=1;align=center;verticalAlign=middle;points=[];fillColor=none;strokeColor=none;rounded=0;" parent="1" vertex="1">
          <mxGeometry x="40" y="270" width="120" height="20" as="geometry" />
        </mxCell>
        <mxCell id="0ZbCkWr9lXcJor2fyHlb-83" value="" style="endArrow=classic;html=1;exitX=-0.017;exitY=0.521;exitDx=0;exitDy=0;exitPerimeter=0;entryX=0.025;entryY=0.593;entryDx=0;entryDy=0;entryPerimeter=0;" parent="1" source="0ZbCkWr9lXcJor2fyHlb-76" target="0ZbCkWr9lXcJor2fyHlb-82" edge="1">
          <mxGeometry width="50" height="50" relative="1" as="geometry">
            <mxPoint x="50" y="220" as="sourcePoint" />
            <mxPoint x="43" y="289" as="targetPoint" />
            <Array as="points">
              <mxPoint x="20" y="210" />
              <mxPoint x="20" y="282" />
            </Array>
          </mxGeometry>
        </mxCell>
        <mxCell id="0ZbCkWr9lXcJor2fyHlb-84" value="" style="endArrow=classic;html=1;exitX=-0.007;exitY=0.436;exitDx=0;exitDy=0;exitPerimeter=0;entryX=0.025;entryY=0.593;entryDx=0;entryDy=0;entryPerimeter=0;" parent="1" source="0ZbCkWr9lXcJor2fyHlb-76" edge="1">
          <mxGeometry width="50" height="50" relative="1" as="geometry">
            <mxPoint x="35.98000000000002" y="240.41999999999996" as="sourcePoint" />
            <mxPoint x="40" y="311.86" as="targetPoint" />
            <Array as="points">
              <mxPoint x="20" y="209" />
              <mxPoint x="20" y="312" />
            </Array>
          </mxGeometry>
        </mxCell>
        <mxCell id="0ZbCkWr9lXcJor2fyHlb-85" value="eval.py" style="text;html=1;resizable=0;autosize=1;align=center;verticalAlign=middle;points=[];fillColor=none;strokeColor=none;rounded=0;" parent="1" vertex="1">
          <mxGeometry x="260" y="270" width="50" height="20" as="geometry" />
        </mxCell>
        <mxCell id="0ZbCkWr9lXcJor2fyHlb-86" value="" style="endArrow=classic;html=1;entryX=0.043;entryY=0.693;entryDx=0;entryDy=0;entryPerimeter=0;exitX=0.987;exitY=0.45;exitDx=0;exitDy=0;exitPerimeter=0;" parent="1" source="0ZbCkWr9lXcJor2fyHlb-82" target="0ZbCkWr9lXcJor2fyHlb-85" edge="1">
          <mxGeometry width="50" height="50" relative="1" as="geometry">
            <mxPoint x="110" y="219" as="sourcePoint" />
            <mxPoint x="258.64" y="277" as="targetPoint" />
            <Array as="points">
              <mxPoint x="240" y="279" />
            </Array>
          </mxGeometry>
        </mxCell>
        <mxCell id="0ZbCkWr9lXcJor2fyHlb-87" value="vis.py" style="text;html=1;resizable=0;autosize=1;align=center;verticalAlign=middle;points=[];fillColor=none;strokeColor=none;rounded=0;" parent="1" vertex="1">
          <mxGeometry x="240" y="220" width="50" height="20" as="geometry" />
        </mxCell>
        <mxCell id="0ZbCkWr9lXcJor2fyHlb-88" value="" style="endArrow=classic;html=1;exitX=0.981;exitY=0.521;exitDx=0;exitDy=0;exitPerimeter=0;entryX=0.066;entryY=0.593;entryDx=0;entryDy=0;entryPerimeter=0;" parent="1" source="0ZbCkWr9lXcJor2fyHlb-63" target="0ZbCkWr9lXcJor2fyHlb-87" edge="1">
          <mxGeometry width="50" height="50" relative="1" as="geometry">
            <mxPoint x="168.43999999999994" y="289" as="sourcePoint" />
            <mxPoint x="262" y="330" as="targetPoint" />
            <Array as="points">
              <mxPoint x="210" y="230" />
            </Array>
          </mxGeometry>
        </mxCell>
        <mxCell id="0ZbCkWr9lXcJor2fyHlb-89" value="export_model.py" style="text;html=1;resizable=0;autosize=1;align=center;verticalAlign=middle;points=[];fillColor=none;strokeColor=none;rounded=0;" parent="1" vertex="1">
          <mxGeometry x="260" y="300" width="100" height="20" as="geometry" />
        </mxCell>
        <mxCell id="0ZbCkWr9lXcJor2fyHlb-90" value="" style="endArrow=classic;html=1;entryX=-0.007;entryY=0.636;entryDx=0;entryDy=0;entryPerimeter=0;exitX=0.992;exitY=0.636;exitDx=0;exitDy=0;exitPerimeter=0;" parent="1" source="0ZbCkWr9lXcJor2fyHlb-69" target="0ZbCkWr9lXcJor2fyHlb-89" edge="1">
          <mxGeometry width="50" height="50" relative="1" as="geometry">
            <mxPoint x="168.43999999999994" y="289" as="sourcePoint" />
            <mxPoint x="262.15" y="323.86" as="targetPoint" />
            <Array as="points">
              <mxPoint x="200" y="313" />
            </Array>
          </mxGeometry>
        </mxCell>
        <mxCell id="b0ob1UA84rEYX2xRQuJS-1" value="&lt;font style=&quot;font-size: 48px&quot;&gt;DarkNet&lt;/font&gt;" style="text;html=1;resizable=0;autosize=1;align=center;verticalAlign=middle;points=[];fillColor=none;strokeColor=none;rounded=0;" vertex="1" parent="1">
          <mxGeometry x="10" y="10" width="190" height="30" as="geometry" />
        </mxCell>
      </root>
    </mxGraphModel>
  </diagram>
</mxfile>
